{
  "accessors": [
    {
      "bufferView": 2,
      "componentType": 5126,
      "count": 9824,
      "max": [
        4.7809500694274902,
        4.7809500694274902,
        0.0028399999719113111
      ],
      "min": [
        -4.7809500694274902,
        -4.7809500694274902,
        -1.0359699726104736
      ],
      "type": "VEC3"
    },
    {
      "bufferView": 2,
      "byteOffset": 117888,
      "componentType": 5126,
      "count": 9824,
      "max": [
        0.96793496608734131,
        0.96794223785400391,
        1
      ],
      "min": [
        -0.96793496608734131,
        -0.96793496608734131,
        -1
      ],
      "type": "VEC3"
    },
    {
      "bufferView": 3,
      "componentType": 5126,
      "count": 9824,
      "max": [
        0.620860755443573,
        0.79093337059020996,
        0.96766173839569092,
        1
      ],
      "min": [
        -0.84790277481079102,
        -0.81683361530303955,
        -0.96792817115783691,
        1
      ],
      "type": "VEC4"
    },
    {
      "bufferView": 1,
      "componentType": 5126,
      "count": 9824,
      "max": [
        1,
        1
      ],
      "min": [
        0,
        0
      ],
      "type": "VEC2"
    },
    {
      "bufferView": 0,
      "componentType": 5125,
      "count": 56832,
      "max": [
        9823
      ],
      "min": [
        0
      ],
      "type": "SCALAR"
    }
  ],
  "asset": {
    "extras": {
      "author": "Polygenerator (https://sketchfab.com/Polygenerator)",
      "license": "CC-BY-4.0 (http://creativecommons.org/licenses/by/4.0/)",
      "source": "https://sketchfab.com/models/13339ceb5ddc44aaa8b69b7cee51d9c3",
      "title": "Bowl"
    },
    "generator": "Sketchfab-3.37.3",
    "version": "2.0"
  },
  "bufferViews": [
    {
      "buffer": 0,
      "byteLength": 227328,
      "byteOffset": 0,
      "name": "floatBufferViews",
      "target": 34963
    },
    {
      "buffer": 0,
      "byteLength": 78592,
      "byteOffset": 227328,
      "byteStride": 8,
      "name": "floatBufferViews",
      "target": 34962
    },
    {
      "buffer": 0,
      "byteLength": 235776,
      "byteOffset": 305920,
      "byteStride": 12,
      "name": "floatBufferViews",
      "target": 34962
    },
    {
      "buffer": 0,
      "byteLength": 157184,
      "byteOffset": 541696,
      "byteStride": 16,
      "name": "floatBufferViews",
      "target": 34962
    }
  ],
  "buffers": [
    {
      "byteLength": 698880,
      "uri": "scene.bin"
    }
  ],
  "extensionsRequired": [
    "KHR_materials_pbrSpecularGlossiness"
  ],
  "extensionsUsed": [
    "KHR_materials_pbrSpecularGlossiness"
  ],
  "materials": [
    {
      "doubleSided": true,
      "extensions": {
        "KHR_materials_pbrSpecularGlossiness": {
          "diffuseFactor": [
            0.29860937119999997,
            0.0038447375000000002,
            0.0038447375000000002,
            1
          ],
          "glossinessFactor": 0.92000000000000004,
          "specularFactor": [
            0.0138257576,
            0.0138257576,
            0.0138257576
          ]
        }
      },
      "name": "Material.001"
    }
  ],
  "meshes": [
    {
      "name": "Cylinder_0",
      "primitives": [
        {
          "attributes": {
            "NORMAL": 1,
            "POSITION": 0,
            "TANGENT": 2,
            "TEXCOORD_0": 3
          },
          "indices": 4,
          "material": 0,
          "mode": 4
        }
      ]
    }
  ],
  "nodes": [
    {
      "children": [
        1
      ],
      "name": "RootNode (gltf orientation matrix)",
      "rotation": [
        -0.70710678118654746,
        -0,
        -0,
        0.70710678118654757
      ]
    },
    {
      "children": [
        2
      ],
      "name": "RootNode (model correction matrix)"
    },
    {
      "children": [
        3,
        5
      ],
      "name": "Root"
    },
    {
      "children": [
        4
      ],
      "matrix": [
        1,
        0,
        0,
        0,
        0,
        1,
        0,
        0,
        0,
        0,
        3,
        0,
        0,
        4.6458099999999991,
        3.11788,
        1
      ],
      "name": "Cylinder"
    },
    {
      "mesh": 0,
      "name": "Cylinder_0"
    },
    {
      "children": [
        6
      ],
      "matrix": [
        0.93235999999999997,
        0.13940000000000002,
        0.33359000000000005,
        0,
        -0.04234000000000001,
        0.95843,
        -0.28217000000000003,
        0,
        -0.35905000000000004,
        0.24896000000000004,
        0.89950000000000008,
        0,
        0,
        0,
        9.5974900000000005,
        1
      ],
      "name": "Sun"
    },
    {
      "name": "Sun"
    }
  ],
  "scene": 0,
  "scenes": [
    {
      "name": "OSG_Scene",
      "nodes": [
        0
      ]
    }
  ]
}

